<svg xmlns="http://www.w3.org/2000/svg" width="17" height="13">
    <path fill-rule="evenodd" fill="#333" d="M.5 4.838v6.084h.03l2.195.026c.094.052.301.297.414.43.159.188.296.35.427.438 1.115.752 2.51.715 3.74.683l.368-.009h1.467c.145 0 .298-.022.445-.063.166-.032.318-.102.448-.2a.963.963 0 0 0 .241-.219.97.97 0 0 0 .195-.596.603.603 0 0 0 .003-.06c0-.376-.134-.708-.423-.905.135.004.269.009.387-.005a1.02 1.02 0 0 0 .673-.252 1.096 1.096 0 0 0-.019-1.796h.222a1.4 1.4 0 0 0 .379-.055 1.095 1.095 0 0 0 .416-1.978c1.39.011 3.595-.012 3.741-.012a1.096 1.096 0 0 0 0-2.192l-5.956.012c-.96 0-1.387-.075-1.572-.131l.024-.017c.594-.411 1.192-.899 1.828-1.447.288-.247.434-.556.434-.97 0-.319-.142-.605-.364-.8a.761.761 0 0 0-.196-.156.93.93 0 0 0-.478-.106L9.544.541c-.106 0-.207.016-.303.044-.403.092-.843.313-1.252.535l-.055.03C5.903 2.249 4.351 3.308 3.05 4.483c-.369.334-1.851.338-2.35.349l-.2.006z"/>
</svg>
